<svg id="Capa_1" data-name="Capa 1" xmlns="http://www.w3.org/2000/svg" viewBox="0 0 2732 2732"><defs><style>.cls-1{fill:#0ba1b5;}</style></defs><path class="cls-1" d="M1491.29,1933.66c37.5-30.37,80.29-61.73,119.47-97.45,78.06-71.15,137.22-156.24,164.21-263,25.75-101.93,14.54-201.6-16.73-299.87-9-28.17-20.21-55.55-31.23-85.52-49.44,111.16-123.69,198.64-201.66,283.07-60.8,65.83-114.83,136.35-145.83,223.46-5.11,14.36-8.69,29.32-13.76,46.74-1.91-7.29-3.35-12.71-4.76-18.15-18.3-70.79-54.32-131.67-98.94-186.69-39.9-49.19-83.49-95.06-124.32-143.45-51.74-61.33-98.87-126.21-132.67-205.44-11.11,30.27-21.91,57.52-31.16,85.35C955,1329.48,943.75,1388,942.74,1448.32c-2,121.27,38.61,226.1,112.43,317.89,54.24,67.43,119.66,120.89,190.75,167.62-57.65,4.55-209.15-80.86-282.75-159.31-78.69-83.87-130.83-183.17-153.29-298.48-59.18-303.82,109.46-582.87,357.46-678-9.6,12.15-18.34,22.63-26.46,33.61-60,81.14-67.5,166.4-19.77,257.13,38,72.31,89.3,133.48,142,193.84,42.39,48.53,80.38,100.56,101.92,165,9.06-19.49,16.89-38.51,26.46-56.5,29.82-56.1,71.68-102.27,112.5-149.37,45.91-53,87-109.49,116.6-174.71,34.54-76.2,26.63-148.27-17.27-217.1-11.33-17.77-24.84-34-37-50.51,222.36,81.29,383.07,326.12,366.48,591.61C1912.91,1709.83,1674.2,1901.78,1491.29,1933.66Z"/></svg>